<?xml version="1.0" encoding="utf-8"?>
<!-- Generator: Adobe Illustrator 27.5.0, SVG Export Plug-In . SVG Version: 6.00 Build 0)  -->
<svg version="1.1" xmlns="http://www.w3.org/2000/svg" xmlns:xlink="http://www.w3.org/1999/xlink" x="0px" y="0px"
	 viewBox="0 0 750 500" style="enable-background:new 0 0 750 500;" xml:space="preserve">
<g id="BACKGROUND">
	<rect style="fill:transparent;" width="750" height="500"/>
</g>
<g id="OBJECTS">
	<g>
		<g>
			<path style="fill:#71BF9D;" d="M564.347,320.99c0,0,19.134-7.255,33.99-12.344c10.955-3.753,20.658-5.436,21.243-9.49
				c0.664-4.605-11.006-4.103-23.252,0.494c-13.154,4.938-26.975,14.178-26.975,14.178s18.215-14.596,33.848-25.925
				c10.135-7.345,19.968-11.236,20.392-15.94c0.508-5.626-14.497-3.288-27.885,6.739C580.634,289.992,567.693,311,567.693,311
				s6.53-15.673,15.235-28.318c7.302-10.608,16.535-19.433,14.245-24.625c-2.624-5.949-14.76,5.187-22.748,19.404
				c-7.291,12.978-10.601,28.913-10.601,28.913s-0.28-7.631,1.023-15.67c1.417-8.738,4.304-17.981,1.002-19.044
				C559.507,269.62,550.597,300.157,564.347,320.99z"/>
			<path style="fill:#3C8460;" d="M566.623,318.222c0,0,12.812-7.075,24.775-12.368c9.663-4.276,19.342-6.761,19.294-5.765
				c-0.043,0.885-8.275,3.475-18.482,7.004C579.774,311.394,566.623,318.222,566.623,318.222z"/>
			<path style="fill:#3C8460;" d="M572.067,308.093c0,0,10.855-12.238,20.738-20.809c7.983-6.923,17.393-11.436,17.64-10.47
				c0.219,0.859-7.777,5.048-16.499,11.417C583.317,295.991,572.067,308.093,572.067,308.093z"/>
			<path style="fill:#3C8460;" d="M565.734,307.483c0,0,5.795-15.298,11.986-26.821c5.001-9.309,12.192-16.872,12.766-16.056
				c0.51,0.725-5.474,7.483-11.363,16.536C571.948,292.172,565.734,307.483,565.734,307.483z"/>
			<path style="fill:#3C8460;" d="M563.135,314.324c0,0-2.253-4.118-2.954-17.181c-0.566-10.552,3.396-20.661,4.31-20.262
				c0.812,0.354-3.54,9.326-3.408,20.125C561.249,310.624,563.135,314.324,563.135,314.324z"/>
		</g>
		<g>
			<path style="fill:#71BF9D;" d="M168.462,377.184c0,0-20.381,1.835-35.967,3.749c-11.494,1.411-20.957,4.137-23.255,0.746
				c-2.61-3.852,8.107-8.5,21.131-9.716c13.989-1.306,30.459,0.966,30.459,0.966s-22.762-5.169-41.773-8.529
				c-12.325-2.178-22.87-1.381-25.308-5.427c-2.915-4.838,11.603-9.292,28.027-6.123c18.493,3.568,39.312,16.81,39.312,16.81
				s-12.722-11.244-26.078-18.815c-11.203-6.351-23.364-10.255-23.573-15.925c-0.239-6.498,15.543-1.784,28.94,7.514
				c12.229,8.488,22.17,21.375,22.17,21.375s-3.082-6.986-7.767-13.648c-5.092-7.241-11.728-14.293-9.222-16.692
				C150.369,328.863,171.727,352.438,168.462,377.184z"/>
			<path style="fill:#3C8460;" d="M165.205,375.69c0,0-14.616-0.765-27.689-0.3c-10.56,0.376-20.352,2.37-19.874,3.245
				c0.425,0.777,8.962-0.49,19.685-1.775C150.393,375.294,165.205,375.69,165.205,375.69z"/>
			<path style="fill:#3C8460;" d="M155.883,368.957c0,0-15.111-6.265-27.746-9.656c-10.206-2.739-20.642-2.687-20.441-1.71
				c0.178,0.868,9.201,1.142,19.829,3.06C140.475,362.987,155.883,368.957,155.883,368.957z"/>
			<path style="fill:#3C8460;" d="M161.313,365.641c0,0-11.897-11.228-22.501-18.888c-8.566-6.188-18.339-9.849-18.498-8.864
				c-0.142,0.875,8.194,4.339,17.447,9.909C149.033,354.584,161.313,365.641,161.313,365.641z"/>
			<path style="fill:#3C8460;" d="M166.64,370.659c0,0,0.227-4.689-4.851-16.745c-4.102-9.738-12.082-17.1-12.731-16.342
				c-0.576,0.673,7.259,6.842,11.86,16.613C166.719,366.506,166.64,370.659,166.64,370.659z"/>
		</g>
		<g>
			<path style="fill:#FFD25A;" d="M147.539,388.878h510.886c0,0-32.608-71.654-52.546-77.714
				c-19.937-6.06-66.795,4.364-72.593,0.499c-5.798-3.865-32.137-75.319-41.764-81.689c-9.627-6.37-173.848,31.131-183.235,44.295
				c-7.506,10.526-30.98,45.948-42.087,51.189c-11.106,5.241-67.653-10.355-78.328-6.898
				C177.196,322.018,147.539,388.878,147.539,388.878z"/>
			<path style="opacity:0.5;fill:#FFBE57;" d="M605.879,311.164c-2.988-0.908-6.584-1.444-10.552-1.715
				c8.1,17.154,9.733,34.91-7.527,48.548c-28.579,20.856-63.826,14.27-90.5-5.488c-40.963-31.833-83.832-12.075-125.748-3.293
				c-18.1,3.293-45.726-2.195-42.868-23.052c4.896-49.166,46.258-66.966,85.62-84.687c-47.751,10.642-100.799,25.477-106.017,32.793
				c-7.506,10.526-30.98,45.948-42.087,51.189c-11.106,5.241-67.653-10.354-78.328-6.898c-10.675,3.457-40.333,70.317-40.333,70.317
				h510.886C658.424,388.878,625.816,317.224,605.879,311.164z"/>
			<g>
				<g>
					<g>
						<path style="fill:#FFFFFF;" d="M212.945,324.942c0.511-0.069,1.006,0.003,1.501,0.064c0.49,0.103,0.982,0.195,1.455,0.426
							c0.551,0.271,0.73,0.736,0.402,1.038c-0.135,0.125-0.336,0.202-0.564,0.232c-0.511,0.067-1.004-0.006-1.498-0.067
							c-0.489-0.104-0.98-0.195-1.453-0.423c-0.551-0.266-0.735-0.729-0.41-1.034C212.514,325.053,212.716,324.973,212.945,324.942z
							"/>
					</g>
					<g>
						<path style="fill:#FFFFFF;" d="M218.556,325.885c0.511-0.064,1.005,0.011,1.499,0.075c0.49,0.105,0.98,0.2,1.453,0.434
							c0.549,0.272,0.728,0.738,0.399,1.039c-0.136,0.124-0.337,0.202-0.564,0.23c-0.511,0.064-1.004-0.012-1.499-0.075
							c-0.489-0.106-0.979-0.2-1.452-0.433c-0.549-0.271-0.73-0.735-0.404-1.038C218.125,325.991,218.327,325.914,218.556,325.885z"
							/>
					</g>
					<g>
						<path style="fill:#FFFFFF;" d="M224.16,326.851c0.511-0.064,1.004,0.012,1.498,0.075c0.489,0.105,0.979,0.198,1.452,0.432
							c0.549,0.272,0.729,0.735,0.401,1.038c-0.135,0.125-0.337,0.202-0.564,0.231c-0.511,0.065-1.005-0.01-1.499-0.073
							c-0.49-0.105-0.98-0.2-1.453-0.433c-0.55-0.271-0.73-0.736-0.403-1.038C223.729,326.957,223.931,326.88,224.16,326.851z"/>
					</g>
					<g>
						<path style="fill:#FFFFFF;" d="M234.11,328.511c0.51-0.073,1.002-0.008,1.497,0.046c0.489,0.098,0.98,0.178,1.456,0.398
							c0.553,0.257,0.743,0.717,0.421,1.028c-0.133,0.128-0.333,0.211-0.56,0.246c-0.511,0.079-1.007,0.016-1.503-0.04
							c-0.492-0.097-0.984-0.182-1.461-0.406c-0.553-0.264-0.738-0.727-0.414-1.033C233.68,328.622,233.882,328.542,234.11,328.511z
							"/>
					</g>
					<g>
						<path style="fill:#FFFFFF;" d="M241.197,329.507c0.311-0.114,0.609-0.086,0.907-0.074c0.295,0.052,0.591,0.092,0.877,0.273
							c0.55,0.349,0.599,0.879,0.098,1.183c-0.059,0.036-0.129,0.069-0.197,0.095c-0.312,0.119-0.614,0.097-0.916,0.087
							c-0.298-0.055-0.598-0.103-0.884-0.288c-0.551-0.357-0.587-0.886-0.087-1.182
							C241.056,329.565,241.127,329.533,241.197,329.507z"/>
					</g>
					<g>
						<path style="fill:#FFFFFF;" d="M247.189,330.052c0.299-0.143,0.594-0.146,0.889-0.16c0.295,0.029,0.584,0.022,0.881,0.17
							c0.57,0.279,0.688,0.799,0.215,1.164c-0.056,0.043-0.123,0.085-0.189,0.119c-0.303,0.154-0.613,0.18-0.918,0.193
							c-0.305-0.029-0.61-0.046-0.911-0.203c-0.579-0.303-0.638-0.839-0.162-1.169C247.053,330.124,247.121,330.084,247.189,330.052
							z"/>
					</g>
				</g>
				<g>
					<g>
						<path style="fill:#FFFFFF;" d="M170.702,350.775c2.131-4.151,4.323-8.264,6.668-12.272c2.367-3.99,4.784-7.955,7.688-11.549
							c0.373-0.441,0.767-0.864,1.15-1.296c0.403-0.416,0.831-0.811,1.259-1.204c0.49-0.338,0.902-0.752,1.499-0.981
							c0.565-0.311,1.108-0.371,1.654-0.487c2.168-0.315,4.28-0.226,6.385-0.094c4.204,0.311,8.357,0.953,12.498,1.653
							c0.573,0.1,0.991,0.463,0.934,0.812c-0.055,0.337-0.535,0.537-1.082,0.461c-4.142-0.565-8.29-1.108-12.425-1.366
							c-2.059-0.119-4.144-0.179-6.107,0.122c-1.016,0.149-1.711,0.525-2.52,1.191c-0.38,0.358-0.764,0.715-1.134,1.1
							c-0.359,0.411-0.726,0.808-1.078,1.23c-2.806,3.428-5.238,7.351-7.599,11.288c-2.361,3.949-4.614,7.994-6.837,12.062
							c-0.307,0.564-0.762,0.86-1.018,0.662C170.389,351.913,170.421,351.325,170.702,350.775z"/>
					</g>
					<g>
						<path style="fill:#FFFFFF;" d="M170.037,354.237c-0.103,0.492-0.311,0.911-0.51,1.337c-0.232,0.403-0.451,0.815-0.776,1.155
							c-0.449,0.468-0.888,0.429-0.981-0.088c-0.029-0.164-0.019-0.363,0.022-0.565c0.101-0.494,0.306-0.917,0.507-1.343
							c0.232-0.405,0.455-0.816,0.783-1.155c0.451-0.467,0.89-0.425,0.98,0.091C170.09,353.834,170.079,354.034,170.037,354.237z"/>
					</g>
					<g>
						<path style="fill:#FFFFFF;" d="M167.603,358.975c-0.098,0.494-0.302,0.916-0.496,1.345c-0.227,0.407-0.444,0.82-0.768,1.163
							c-0.444,0.473-0.883,0.44-0.981-0.076c-0.031-0.164-0.023-0.363,0.016-0.566c0.098-0.494,0.302-0.918,0.498-1.348
							c0.227-0.408,0.446-0.822,0.77-1.165c0.446-0.472,0.888-0.435,0.982,0.079C167.653,358.571,167.643,358.771,167.603,358.975z"
							/>
					</g>
					<g>
						<path style="fill:#FFFFFF;" d="M165.212,363.743c-0.731,1.776-1.561,3.484-2.376,5.204c-0.848,1.698-1.679,3.407-2.615,5.051
							c-0.318,0.558-0.76,0.806-0.99,0.551c-0.188-0.209-0.174-0.694,0.014-1.17c0.707-1.792,1.527-3.514,2.344-5.237
							c0.849-1.702,1.697-3.406,2.655-5.036c0.327-0.553,0.774-0.791,0.999-0.531C165.43,362.788,165.407,363.271,165.212,363.743z"
							/>
					</g>
					<g>
						<path style="fill:#FFFFFF;" d="M158.15,378.371c-0.006,0.328-0.119,0.59-0.223,0.857c-0.137,0.247-0.264,0.499-0.499,0.684
							c-0.537,0.423-0.977,0.169-0.981-0.57c0-0.011,0-0.028,0-0.039c0.005-0.329,0.119-0.59,0.223-0.858
							c0.137-0.247,0.265-0.5,0.5-0.686c0.538-0.423,0.976-0.169,0.98,0.565C158.15,378.338,158.15,378.357,158.15,378.371z"/>
					</g>
					<g>
						<path style="fill:#FFFFFF;" d="M155.763,383.575c-0.003,0.328-0.115,0.59-0.216,0.858c-0.134,0.248-0.26,0.501-0.493,0.689
							c-0.532,0.428-0.976,0.182-0.986-0.558c0-0.011,0-0.028,0-0.039c0.002-0.33,0.114-0.592,0.216-0.861
							c0.135-0.249,0.262-0.503,0.495-0.691c0.534-0.429,0.974-0.179,0.984,0.555C155.763,383.543,155.763,383.562,155.763,383.575z
							"/>
					</g>
				</g>
			</g>
			<path style="fill:none;stroke:#FFFFFF;stroke-width:1.0226;stroke-miterlimit:10;" d="M649.275,388.878
				c0,0-27.618-65.552-46.605-71.216c-18.988-5.664-66.398,5.113-71.92,1.501c-5.522-3.612-33.493-74.454-42.662-80.407
				c-9.169-5.954-165.297,28.686-174.777,40.352c-7.727,9.509-30.245,50.324-40.943,54.863c-14.618,6.201-69.8-8.549-79.967-5.318
				c-10.167,3.231-34.25,60.225-34.25,60.225"/>
			<g>
				<g>
					<g>
						<path style="fill:#FFFFFF;" d="M603.692,314.065c0.497,0.108,0.971,0.306,1.446,0.496c0.466,0.217,0.936,0.427,1.37,0.722
							c0.482,0.405,0.581,0.794,0.243,0.857c-0.14,0.029-0.33-0.009-0.543-0.074c-0.494-0.106-0.952-0.297-1.413-0.482
							c-0.453-0.211-0.907-0.414-1.338-0.708c-0.498-0.35-0.656-0.696-0.324-0.821C603.271,314.01,603.47,314.017,603.692,314.065z"
							/>
					</g>
					<g>
						<path style="fill:#FFFFFF;" d="M608.914,316.702c0.48,0.191,0.957,0.401,1.367,0.736c0.411,0.333,0.827,0.66,1.195,1.064
							c0.429,0.471,0.481,0.855,0.129,0.868c-0.145,0.005-0.336-0.053-0.539-0.155c-0.456-0.23-0.864-0.537-1.277-0.838
							c-0.387-0.353-0.843-0.564-1.229-0.924c-0.457-0.401-0.557-0.782-0.208-0.841
							C608.495,316.588,608.696,316.623,608.914,316.702z"/>
					</g>
					<g>
						<path style="fill:#FFFFFF;" d="M613.678,320.295c0.437,0.289,0.826,0.654,1.219,1.013c0.377,0.38,0.759,0.755,1.084,1.199
							c0.383,0.512,0.383,0.908,0.033,0.864c-0.147-0.014-0.334-0.098-0.528-0.225c-0.435-0.287-0.814-0.643-1.199-0.993
							c-0.368-0.372-0.74-0.738-1.064-1.18c-0.376-0.513-0.411-0.918-0.069-0.897C613.296,320.083,613.482,320.165,613.678,320.295z
							"/>
					</g>
					<g>
						<path style="fill:#FFFFFF;" d="M620.915,328.367c0.388,0.372,0.715,0.806,1.046,1.235c0.313,0.447,0.631,0.889,0.885,1.39
							c0.302,0.576,0.219,0.993-0.103,0.869c-0.133-0.052-0.304-0.171-0.477-0.335c-0.387-0.37-0.709-0.798-1.036-1.221
							c-0.309-0.442-0.622-0.878-0.875-1.376c-0.294-0.579-0.262-0.978,0.075-0.885C620.57,328.083,620.742,328.201,620.915,328.367
							z"/>
					</g>
					<g>
						<path style="fill:#FFFFFF;" d="M625.349,334.839c0.249,0.219,0.432,0.493,0.621,0.763c0.169,0.286,0.343,0.568,0.45,0.904
							c0.192,0.657-0.02,0.941-0.445,0.622c-0.052-0.042-0.11-0.088-0.164-0.131c-0.249-0.218-0.43-0.49-0.617-0.757
							c-0.167-0.284-0.339-0.563-0.446-0.897c-0.206-0.644-0.016-0.932,0.43-0.636C625.233,334.743,625.293,334.79,625.349,334.839z
							"/>
					</g>
					<g>
						<path style="fill:#FFFFFF;" d="M628.752,340.596c0.238,0.233,0.408,0.518,0.584,0.799c0.155,0.296,0.316,0.588,0.408,0.93
							c0.176,0.659-0.035,0.923-0.468,0.597c-0.051-0.038-0.107-0.088-0.159-0.138c-0.238-0.232-0.407-0.515-0.581-0.794
							c-0.154-0.294-0.313-0.583-0.405-0.925c-0.176-0.657,0.027-0.933,0.458-0.61C628.641,340.493,628.698,340.544,628.752,340.596
							z"/>
					</g>
				</g>
				<g>
					<g>
						<path style="fill:#FFFFFF;" d="M550.482,314.589l12.44-1.094l12.444-1.001c4.15-0.322,8.307-0.635,12.481-0.716
							c4.172-0.021,8.381,0.246,12.476,1.324c0.563,0.172,0.965,0.492,0.898,0.717c-0.064,0.217-0.534,0.266-1.061,0.118
							c-4.027-0.968-8.169-1.17-12.302-1.117c-4.138,0.099-8.281,0.429-12.427,0.77l-12.449,0.944l-12.45,0.909
							c-0.574,0.04-1.04-0.119-1.039-0.356C549.495,314.857,549.934,314.639,550.482,314.589z"/>
					</g>
					<g>
						<path style="fill:#FFFFFF;" d="M547.633,315.573c-0.411,0.133-0.828,0.172-1.244,0.219c-0.418,0.017-0.836,0.042-1.258-0.027
							c-0.582-0.096-0.791-0.385-0.467-0.646c0.103-0.083,0.252-0.155,0.42-0.208c0.411-0.131,0.827-0.168,1.242-0.214
							c0.417-0.018,0.834-0.045,1.257,0.022c0.582,0.092,0.794,0.38,0.473,0.642C547.953,315.445,547.803,315.518,547.633,315.573z"
							/>
					</g>
					<g>
						<path style="fill:#FFFFFF;" d="M542.88,315.924c-0.413,0.128-0.83,0.162-1.247,0.203c-0.419,0.008-0.838,0.025-1.26-0.053
							c-0.582-0.107-0.784-0.401-0.455-0.655c0.104-0.081,0.254-0.149,0.423-0.2c0.412-0.123,0.828-0.151,1.243-0.188
							c0.417-0.012,0.833-0.034,1.255,0.038c0.58,0.1,0.791,0.389,0.468,0.648C543.201,315.8,543.051,315.871,542.88,315.924z"/>
					</g>
					<g>
						<path style="fill:#FFFFFF;" d="M538.113,316.164c-1.698,0.116-3.424,0.165-5.174-0.355c-0.431-0.152-0.857-0.344-1.263-0.671
							c-0.221-0.135-0.361-0.328-0.537-0.496c-0.166-0.175-0.344-0.341-0.481-0.535c-0.597-0.744-1.119-1.538-1.578-2.372
							c-0.322-0.562-0.385-1.07-0.168-1.124c0.174-0.04,0.49,0.226,0.769,0.622c0.517,0.756,1.057,1.484,1.623,2.146
							c0.135,0.18,0.29,0.312,0.437,0.461c0.15,0.136,0.292,0.321,0.448,0.4c0.16,0.094,0.286,0.225,0.468,0.299
							c0.183,0.07,0.358,0.158,0.547,0.216c1.515,0.484,3.22,0.476,4.894,0.553c0.572,0.015,0.976,0.22,0.9,0.459
							C538.936,315.964,538.565,316.123,538.113,316.164z"/>
					</g>
					<g>
						<path style="fill:#FFFFFF;" d="M526.73,307.539c-0.206-0.199-0.337-0.45-0.474-0.696c-0.115-0.26-0.237-0.517-0.287-0.82
							c-0.109-0.694,0.173-0.888,0.623-0.444l0.024,0.024c0.201,0.201,0.33,0.449,0.465,0.692c0.114,0.258,0.233,0.512,0.288,0.81
							c0.122,0.682-0.148,0.895-0.611,0.463L526.73,307.539z"/>
					</g>
					<g>
						<path style="fill:#FFFFFF;" d="M524.247,302.398c-0.193-0.214-0.313-0.47-0.44-0.724c-0.103-0.268-0.213-0.531-0.247-0.837
							c-0.078-0.701,0.214-0.874,0.643-0.405l0.023,0.025c0.189,0.214,0.308,0.469,0.431,0.721c0.103,0.264,0.213,0.524,0.25,0.827
							c0.089,0.69-0.192,0.884-0.632,0.423L524.247,302.398z"/>
					</g>
				</g>
			</g>
		</g>
		<g>
			<path style="opacity:0.3;fill:#A1ABAD;" d="M635.065,402.355c0,2.858-17.924,5.175-40.035,5.175s-40.035-2.317-40.035-5.175
				c0-2.858,17.924-5.175,40.035-5.175S635.065,399.497,635.065,402.355z"/>
			<path style="opacity:0.3;fill:#A1ABAD;" d="M311.3,400.56h70.202c0.195,0,0.39-0.016,0.582-0.049l82.784-13.93
				c0.478-0.08,0.967-0.061,1.437,0.057l67.063,16.843c2.99,0.751,3.627,4.717,1.022,6.367l-19.9,12.598
				c-0.561,0.355-1.212,0.544-1.877,0.544H268.993c-3.924,0-4.888-5.461-1.201-6.805l42.307-15.414
				C310.484,400.631,310.891,400.56,311.3,400.56z"/>
		</g>
		<g>
			<g>
				<path style="fill-rule:evenodd;clip-rule:evenodd;fill:#FF8976;" d="M498.274,323.213c6.773-4.561,16.75-67.191,15.123-74.358
					c-2.66-11.716-54.902-13.908-56.729,2.224c-4.201,37.106-15.524,61.042-12.414,68.18
					C449.064,330.298,494.414,325.812,498.274,323.213z"/>
				<path style="fill-rule:evenodd;clip-rule:evenodd;fill:#EF6456;" d="M491.576,323.213c5.942-4.561,17.194-74.102,14.771-79.491
					c-2.268-5.044-50.135-7.853-51.737,8.279c-3.685,37.106-13.152,60.119-10.423,67.257
					C448.406,330.298,488.19,325.812,491.576,323.213z"/>
				<path style="opacity:0.3;fill-rule:evenodd;clip-rule:evenodd;fill:#BA2B27;" d="M497.879,256.361
					c1.167-12.572-12.13-17.583-24.623-15.755c-9.74,1.426-17.997,4.853-18.647,11.395c-3.685,37.106-12.4,58.048-9.672,65.187
					c2.196,5.746,32.351,6.566,38.783,0.8C489.478,312.827,495.736,279.459,497.879,256.361z"/>
			</g>
			<g>
				<path style="fill-rule:evenodd;clip-rule:evenodd;fill:#7C4284;" d="M431.777,396.827c0,2.266-1.837,4.103-4.103,4.103
					c-2.266,0-4.103-1.837-4.103-4.103c0-2.266,1.837-4.103,4.103-4.103C429.94,392.724,431.777,394.561,431.777,396.827z"/>
				<path style="fill-rule:evenodd;clip-rule:evenodd;fill:#7C4284;" d="M500.299,396.827c0,2.266-1.837,4.103-4.103,4.103
					c-2.266,0-4.103-1.837-4.103-4.103c0-2.266,1.837-4.103,4.103-4.103C498.462,392.724,500.299,394.561,500.299,396.827z"/>
				<circle style="fill-rule:evenodd;clip-rule:evenodd;fill:#7C4284;" cx="456.774" cy="401.37" r="4.103"/>
				<path style="fill-rule:evenodd;clip-rule:evenodd;fill:#7C4284;" d="M473.182,391.713c0,2.266-1.837,4.103-4.103,4.103
					c-2.266,0-4.103-1.837-4.103-4.103s1.837-4.103,4.103-4.103C471.345,387.61,473.182,389.447,473.182,391.713z"/>
				<path style="fill-rule:evenodd;clip-rule:evenodd;fill:#3E2344;" d="M463.215,378.052h-2.48c-4.86,0-8.8,4.314-8.8,9.635v1.851
					c0,2.618,20.08,2.618,20.08,0v-1.851C472.016,382.366,468.076,378.052,463.215,378.052z"/>
				<g>
					<path style="fill:#3E2344;" d="M437.448,359.088c-2.222,0.681-2.865-1.418-0.643-2.099l12.434-3.809l3.083-12.185l2.129,0.538
						l-3.387,13.384L437.448,359.088z"/>
				</g>
				<path style="fill-rule:evenodd;clip-rule:evenodd;fill:#A1ABAD;" d="M465.593,378.676c0,1.344-7.174,1.344-7.174,0v-39.828
					h7.174V378.676z"/>
				<path style="fill-rule:evenodd;clip-rule:evenodd;fill:#3E2344;" d="M466.684,344.306h-9.416
					c-6.586,0-11.925-5.339-11.925-11.924v-1.547c0-2.158,1.75-3.908,3.908-3.908h25.45c2.158,0,3.908,1.75,3.908,3.908v1.547
					C478.608,338.967,473.269,344.306,466.684,344.306z"/>
				<path style="fill-rule:evenodd;clip-rule:evenodd;fill:#EF6456;" d="M421.421,319.748c0-4.42,77.677-4.42,77.677,0
					c0,0,4.091,17.673-38.839,17.673S421.421,319.748,421.421,319.748z"/>
				<path style="opacity:0.3;fill-rule:evenodd;clip-rule:evenodd;fill:#BA2B27;" d="M422.511,318.09c0-2.21,66.097-2.21,66.097,0
					c0,0,3.481,8.837-33.048,8.837C419.029,326.927,422.511,318.09,422.511,318.09z"/>
				<path style="fill-rule:evenodd;clip-rule:evenodd;fill:#3E2344;" d="M454.79,381.533l-27.64,6.089
					c-2.091,0.461-3.58,2.314-3.58,4.455v1.806l29.816-3.192L454.79,381.533z"/>
				<path style="fill-rule:evenodd;clip-rule:evenodd;fill:#3E2344;" d="M469.079,381.533l27.64,6.089
					c2.091,0.461,3.58,2.314,3.58,4.455v1.806l-29.816-3.192L469.079,381.533z"/>
				<path style="fill-rule:evenodd;clip-rule:evenodd;fill:#3E2344;" d="M460.407,382.211c-4.348,0-7.213,12.451-7.186,15.706
					c0.02,2.345,2.478,5.297,6.314,1.417c2.712-2.744,6.46-7.967,6.46-7.967S467.024,382.211,460.407,382.211z"/>
			</g>
		</g>
		<g>
			<g>
				<path style="fill:#FFB072;" d="M430.06,273.109c-10.737,4.281-29.842,10.483-29.842,10.483c-1.427,0.4,0.805,6.441,2.232,6.041
					c0,0,16.424-1.858,29.261-4.994C434.116,280.225,435.185,276.803,430.06,273.109z"/>
				<path style="fill:#764582;" d="M458.065,237.288c-0.183-5.9-10.929-16.254-16.512-5.635
					c-5.287,10.056-1.153,33.839-4.263,36.001c-0.848,0.59-9.125,4.529-8.755,6.054c0.126,0.52,2.863,1.431,3.97,5.494
					c0.941,3.454-0.993,5.545-0.697,6.058c0.213,1.122,13.35-3.244,15.825-5.841C454.346,272.373,458.248,243.189,458.065,237.288z"
					/>
				<path style="fill:#FFB072;" d="M403.441,282.728c-4.132,0.322-8.93-0.871-14.304-1.347c-2.089,0.095-5.034,0.68-5.903,1.018
					c-1.109,0.432-3.887,3.244-3.841,4.023c1.117,1.561,4.057-1.107,5.058-1.672c0.368-0.207,1.215-0.233,2.138-0.184
					c-1.325,0.801-2.489,1.551-2.791,1.889c-0.794,0.886-2.004,4.649-1.612,5.323c1.701,0.889,3.121-2.818,3.759-3.774
					c0.098-0.147,0.293-0.304,0.54-0.464c-0.711,1.821-1.374,4.163-1.118,4.603c1.701,0.889,3.595-3.177,4.234-4.132
					c0.081-0.121,0.216-0.243,0.389-0.364c0.079,0.092,0.161,0.183,0.25,0.273c-0.652,1.752-1.211,3.813-0.972,4.223
					c1.21,0.632,2.515-1.239,3.399-2.718c0.211,0.079,0.418,0.159,0.651,0.227c3.61,1.044,9.614,1.453,12.848-0.585
					C408.029,288.248,405.471,282.57,403.441,282.728z"/>
			</g>
			<g>
				<path style="fill:#9D68AA;" d="M459.337,220.658c0,0-13.156,4.439-14.926,8.018c-1.77,3.579,1.762,10.01-0.101,14.687
					c-7.332,18.41,3.066,22.798,3.066,22.798c4.385,13.075-1.232,21.776-1.361,32.966c-1.864,3.081,47.241,15.585,46.104,6.018
					c-1.62-13.641-8.145-23.194-6.523-33.33c1.622-10.136,8.472-27.758,3.953-37.475
					C485.03,224.622,469.653,218.628,459.337,220.658z"/>
				<path style="opacity:0.5;fill:#552F5E;" d="M487.983,288.237c-1.043-3.379-1.972-6.576-2.391-9.726
					c-2.497-14.933-4.108-23.753-6.983-22.258c-2.974,1.546-4.044,10.778-5.754,12.56c-2.028,2.112-17.784,16.751-25.17,18.287
					c-0.005,0.025-0.01,0.049-0.015,0.074c-0.777,3.87,2.271,7.481,6.214,7.305C465.64,293.955,476.907,291.624,487.983,288.237z"/>
			</g>
			<g>
				<g>
					<g>
						<g>
							<defs>
								<path id="SVGID_1_" d="M378.281,366.344c0,0,0.001,4.391-0.697,5.015c-2.1,1.624-3.236,2.825-4.367,5.613
									c-0.644,0.009-1.448-0.239-1.788-0.588l1.109-4.605c0,0-4.812,2.39-7.077,2.419c-2.738,0.034-10.539-2.828-11.311-4.132
									c0,0-0.014-2.998,3.342-2.643c8.405,0.888,14.002-6.079,14.002-6.079C374.403,358.274,377.946,361.921,378.281,366.344z"/>
							</defs>
							<use xlink:href="#SVGID_1_"  style="overflow:visible;fill:#DD4026;"/>
							<clipPath id="SVGID_00000101794903997387012780000009174131355066121390_">
								<use xlink:href="#SVGID_1_"  style="overflow:visible;"/>
							</clipPath>
							<path style="clip-path:url(#SVGID_00000101794903997387012780000009174131355066121390_);fill:#B22714;" d="M353.573,369.257
								c0.162,0.081,8.387,4.406,11.22,4.139c2.833-0.267,6.775-2.746,7.557-2.556c0.782,0.19,5.234,0.518,5.234,0.518l-3.759,8.388
								l-21.85-5.418L353.573,369.257z"/>
						</g>
						<path style="fill:#FFD25A;" d="M362.549,367.059l0.649,1.46c0,0,1.882,0.002,2.932-0.884l-0.465-1.548
							c-0.084-0.281-0.378-0.442-0.66-0.362l-2.113,0.6C362.579,366.414,362.417,366.761,362.549,367.059z"/>
					</g>
					<path style="fill:#552F5E;" d="M405.636,298.872c-6.029,3.919-34.398,62.353-34.398,62.353
						c-0.903,1.319,6.271,5.947,7.174,4.628c0,0,31.935-36.212,37.072-45.866c1.505-2.829,31.995,7.234,54.557,5.426
						c23.693-1.899,26.718-18.011,20.654-28.032C487.637,292.327,411.665,294.953,405.636,298.872z"/>
				</g>
				<path style="fill:#3E2344;" d="M416.251,314.798c2.456-0.132,9.096-2.865,8.967-3.771c-0.103-0.721-6.334,2.25-6.334,2.25
					s7.758-4.048,6.778-5.661c-0.538-0.885-3.785,3.466-9.382,6.334C416.279,313.95,414.802,314.876,416.251,314.798z"/>
			</g>
			<g>
				<g>
					<g>
						<defs>
							<path id="SVGID_00000172406721562274498310000018188428349453452450_" d="M404.551,392.84c0,0,1.663,4.064,1.253,4.905
								c-1.329,2.297-1.926,3.839-1.919,6.848c-0.593,0.252-1.431,0.326-1.878,0.132l-0.716-4.683c0,0-3.549,4.033-5.636,4.917
								c-2.521,1.068-10.825,1.369-12.033,0.455c0,0-1.147-2.769,2.094-3.711c8.116-2.358,10.661-10.925,10.661-10.925
								C397.908,386.837,402.568,388.873,404.551,392.84z"/>
						</defs>
						<use xlink:href="#SVGID_00000172406721562274498310000018188428349453452450_"  style="overflow:visible;fill:#DD4026;"/>
						<clipPath id="SVGID_00000061464314452449649260000018141035360503185592_">
							<use xlink:href="#SVGID_00000172406721562274498310000018188428349453452450_"  style="overflow:visible;"/>
						</clipPath>
						<path style="clip-path:url(#SVGID_00000061464314452449649260000018141035360503185592_);fill:#B22714;" d="M382.782,404.885
							c0.181,0.014,9.431,0.905,11.952-0.414c2.522-1.319,5.232-5.105,6.029-5.225c0.796-0.12,5.041-1.501,5.041-1.501l-0.306,9.186
							l-22.275,3.252L382.782,404.885z"/>
					</g>
					<path style="fill:#FFD25A;" d="M390.259,399.454l1.153,1.106c0,0,1.743-0.71,2.379-1.928l-1.016-1.257
						c-0.184-0.228-0.517-0.266-0.748-0.085l-1.729,1.355C390.043,398.846,390.024,399.228,390.259,399.454z"/>
				</g>
				<path style="fill:#3E2344;" d="M415.986,313.986c-17.974,13.783-14.599,41.969-20.142,77.034
					c-0.243,2.395,7.415,3.559,8.828,0.539c0,0,6.127-14.834,10.046-25.987c2.054-5.845,10.91-24.126,12.139-35.611
					C427.973,319.534,425.784,316.242,415.986,313.986z"/>
			</g>
			<g>
				<path style="fill:#FFB072;" d="M467.533,277.162c-11.598,3.615-30.939,8.447-30.939,8.447c-1.427,0.4,0.4,7.054,1.827,6.654
					c0,0,17.156-0.709,31.101-3.299C471.15,284.627,471.574,280.814,467.533,277.162z"/>
				<path style="fill:#FFB072;" d="M437.263,285.441c-3.385-0.204-6.212-0.662-10.397-2.276c0,0-8.655-1.115-10.015-0.917
					c-1.36,0.198-5.219,2.64-5.37,3.528c0.851,2.048,4.854-0.19,6.128-0.565c0.499-0.147,1.556,0.08,2.658,0.41
					c-1.703,0.257-3.575,0.608-4.166,0.977c-1.166,0.729-3.715,4.517-3.497,5.391c1.603,1.532,4.011-1.839,5.027-2.695
					c0.216-0.182,0.649-0.341,1.187-0.481c-0.03,0.016-0.069,0.031-0.094,0.047c-1.166,0.728-3.715,4.517-3.497,5.391
					c1.603,1.532,4.011-1.839,5.026-2.695c0.241-0.203,0.748-0.378,1.376-0.529c-1.026,1.122-2.359,3.257-2.214,3.837
					c1.319,1.261,3.301-1.514,4.137-2.219c0.294-0.247,1.064-0.446,1.937-0.6c0.208,0.123,0.422,0.243,0.664,0.351
					c3.141,1.401,9.154,1.558,12.342,0.117C440.286,292.002,439.122,285.553,437.263,285.441z"/>
				<path style="fill:#AF79BC;" d="M491.073,238.8c-0.184-5.9-8.22-16.279-13.803-5.66c-5.287,10.056,0.852,34.79-2.257,36.951
					c-0.877,0.609-9.757,6.223-9.411,7.434c0.195,0.685,3.569,1.518,3.935,5.47c0.358,3.87-1.19,6.023-0.624,6.468
					c0.566,0.445,15.506-3.555,17.993-6.165C493.619,276.253,491.257,244.701,491.073,238.8z"/>
				<path style="fill:#764582;" d="M476.969,269.572c2.375-0.461,9.445,0.534,9.57,1.42c0.1,0.704-6.647-0.613-6.647-0.613
					s8.495,1.97,8.003,3.724c-0.27,0.963-4.553-2.367-10.668-3.738C477.228,270.366,475.568,269.844,476.969,269.572z"/>
			</g>
			<g>
				<path style="fill-rule:evenodd;clip-rule:evenodd;fill:#DD4026;" d="M482.289,210.149c-1.146,9.002-36.948,13.142-39.51,1.583
					c-3.713-16.745,4.143-31.117,18.238-31.169C477.443,180.502,483.691,199.138,482.289,210.149z"/>
				<g>
					<g>
						<path style="fill-rule:evenodd;clip-rule:evenodd;fill:#552F5E;" d="M451.168,201.804c-0.087,3.34-0.997,6.026-4.132,5.945
							c-2.195-0.057-3.905-2.811-3.818-6.151c0.087-3.34,1.937-6.001,4.132-5.944C450.485,195.734,451.255,198.464,451.168,201.804z
							"/>
						<path style="fill-rule:evenodd;clip-rule:evenodd;fill:#552F5E;" d="M444.992,205.657c0,0-4.811,7.072-3.673,9.84
							c1.138,2.768,6.743,2.277,6.743,2.277l0.022-0.827c0,0-4.856,0.357-5.88-1.968c-0.847-1.922,3.516-8.868,3.516-8.868
							L444.992,205.657z"/>
						<path style="fill-rule:evenodd;clip-rule:evenodd;fill:#3E2344;" d="M451.301,217.603c-0.022,0.855-1.188,1.518-2.604,1.482
							c-1.416-0.037-2.546-0.76-2.524-1.615c0.022-0.855,1.188-1.518,2.604-1.481C450.193,216.025,451.323,216.748,451.301,217.603z
							"/>
						<path style="fill-rule:evenodd;clip-rule:evenodd;fill:#7C4284;" d="M452.108,201.566c-0.072,2.779-1.612,4.994-3.439,4.947
							c-1.827-0.048-3.249-2.339-3.177-5.119c0.072-2.78,1.612-4.994,3.439-4.947C450.758,196.495,452.181,198.787,452.108,201.566z
							"/>
						
							<ellipse transform="matrix(0.026 -0.9997 0.9997 0.026 235.929 645.1189)" style="fill-rule:evenodd;clip-rule:evenodd;fill:#9D68AA;" cx="449.025" cy="201.486" rx="4.039" ry="2.655"/>
					</g>
					<path style="fill:#FFB072;" d="M463.626,205.061c0,0,0.643,5.336,2.397,9.447c1.754,4.111,4.337,5.406,5.855,7.606
						c2.673,3.872-14.564,13.86-15.301,14.117c0,0-7.202-8.644-5.104-11.511c2.311-3.158,5.012-4.488,3.715-10.275
						c-1.131-5.044-1.797-7.84-1.797-7.84L463.626,205.061z"/>
					<path style="fill:#FFDCAE;" d="M452.306,223.176c-0.127,1,0.04,2.071,0.533,2.906c0.498,0.839,1.328,1.42,2.272,1.727
						c0.947,0.294,1.969,0.458,3.005,0.435c1.033,0.019,2.064-0.12,3.07-0.353c2.029-0.425,3.939-1.339,5.653-2.524
						c0.851-0.603,1.647-1.286,2.358-2.05c0.727-0.75,1.346-1.605,1.801-2.543l0.003-0.006c0.052-0.108,0.182-0.153,0.29-0.101
						c0.1,0.048,0.146,0.163,0.111,0.265c-0.723,2.128-2.29,3.816-4.002,5.194c-1.757,1.348-3.801,2.324-5.974,2.835
						c-1.09,0.231-2.207,0.359-3.324,0.32c-1.11-0.009-2.249-0.165-3.323-0.59c-1.069-0.412-2.074-1.189-2.609-2.252
						c-0.488-1.08-0.584-2.261-0.286-3.367c0.031-0.116,0.15-0.184,0.266-0.153c0.106,0.029,0.172,0.131,0.159,0.237
						L452.306,223.176z"/>
					<path style="fill:#FFDCAE;" d="M452.51,223.237c-0.477,1.539-0.622,3.211-0.598,4.838c0.034,1.635,0.237,3.263,0.602,4.855
						c0.398,1.585,0.923,3.136,1.582,4.633c0.302,0.76,0.718,1.47,1.07,2.207c0.398,0.715,0.832,1.411,1.245,2.118l-0.789-0.124
						c1.648-1.431,3.242-2.974,4.785-4.54c1.53-1.584,3.017-3.214,4.373-4.946c1.366-1.72,2.685-3.489,3.776-5.392
						c1.095-1.896,2.058-3.88,2.634-6.001l0.002-0.006c0.031-0.116,0.151-0.184,0.266-0.152c0.112,0.03,0.179,0.143,0.155,0.255
						c-0.475,2.201-1.327,4.303-2.37,6.29c-1.057,1.984-2.341,3.828-3.68,5.621c-1.363,1.778-2.854,3.447-4.389,5.07
						c-1.543,1.621-3.143,3.168-4.871,4.619l-0.016,0.014c-0.216,0.182-0.539,0.154-0.721-0.063
						c-0.019-0.023-0.037-0.05-0.052-0.075c-0.42-0.734-0.859-1.456-1.262-2.199c-0.358-0.767-0.777-1.505-1.084-2.295
						c-0.681-1.552-1.159-3.188-1.523-4.842c-0.317-1.664-0.51-3.359-0.443-5.054c0.072-1.694,0.304-3.375,0.905-4.991
						c0.042-0.112,0.166-0.169,0.279-0.128c0.108,0.04,0.165,0.158,0.132,0.267L452.51,223.237z"/>
					<path style="fill:#FFDCAE;" d="M457.283,245.132c-0.325,1.99-1.463,3.46-2.544,3.284c-1.08-0.176-1.693-1.932-1.368-3.922
						c0.325-1.99,1.463-3.46,2.544-3.284C456.995,241.387,457.608,243.143,457.283,245.132z"/>
					<path style="fill:#71BF9D;" d="M456.674,245.033c-0.224,1.37-1.008,2.382-1.751,2.261c-0.744-0.121-1.165-1.33-0.942-2.7
						c0.223-1.37,1.008-2.382,1.751-2.261C456.475,242.454,456.897,243.663,456.674,245.033z"/>
					<g>
						<g>
							<g>
								<path style="fill-rule:evenodd;clip-rule:evenodd;fill:#FFB072;" d="M463.705,205.537c0,0-1.892,10.828-12.09,9.63
									c-5.121-0.602-7.22-10.581-5.191-13.82c0,0-2.482-5.738-0.184-10.751c2.461-5.369,10.337-6.582,17.258-4.155
									c0,0,1.979,3.418,0.849,11.954c0,0,1.358-1.502,3.346-0.309c1.508,0.905,1.587,2.903,0.985,4.758
									C467.956,205.068,465.527,206.91,463.705,205.537z"/>
								<path style="fill:#E57E55;" d="M464.465,204.738l0.85-2.005l-1.283-0.596c0,0,1.007-3.771,3.07-2.279
									C468.798,201.085,466.611,205.603,464.465,204.738z"/>
							</g>
							<g>
								<g>
									<g>
										<path style="fill:#FFFFFF;" d="M450.227,208.303c0,0,2.468-0.984,6.114-0.889
											C455.611,210.23,450.528,211.419,450.227,208.303z"/>
										<path style="fill:#FF8976;" d="M449.784,208.033c0.051-0.075,0.132-0.149,0.22-0.193c0.125-0.057,0.056-0.022,0.088-0.036
											l0.052-0.014l0.101-0.026l0.2-0.048l0.394-0.091c0.262-0.056,0.524-0.108,0.787-0.149
											c0.525-0.082,1.046-0.169,1.572-0.217c1.051-0.096,2.101-0.131,3.15-0.1c0.14,0.002,0.252,0.116,0.25,0.256
											c0,0.02-0.004,0.045-0.009,0.064c-0.201,0.734-0.666,1.355-1.223,1.823c-0.565,0.464-1.219,0.812-1.93,1.003
											c-0.702,0.196-1.489,0.264-2.252-0.035c-0.382-0.144-0.727-0.412-1.001-0.75c-0.107-0.187-0.213-0.358-0.306-0.577
											C449.79,208.664,449.761,208.314,449.784,208.033z M450.67,208.573c0.093,0.056,0.133,0.044,0.116,0.105l0.13,0.36
											c0.143,0.211,0.312,0.429,0.576,0.547c0.51,0.257,1.178,0.281,1.806,0.154c1.241-0.274,2.479-1.15,2.796-2.391l0.241,0.32
											c-1.021-0.017-2.044,0.063-3.045,0.248c-0.5,0.094-0.998,0.197-1.481,0.346c-0.242,0.072-0.481,0.154-0.717,0.238
											c-0.117,0.044-0.235,0.085-0.348,0.135l-0.169,0.074l-0.082,0.038l-0.039,0.019c0.017-0.008-0.068,0.032,0.042-0.019
											C450.568,208.71,450.634,208.642,450.67,208.573z"/>
									</g>
									<g>
										<path style="fill:#E57E55;" d="M456.341,207.413"/>
									</g>
									<g>
										<path style="fill:#E57E55;" d="M450.227,208.303"/>
									</g>
								</g>
								<g>
									<path style="fill:#3E2344;" d="M447.082,201.495c0.02,0.484,0.652,0.546,1.428,0.513c0.776-0.032,1.401-0.146,1.38-0.63
										c-0.02-0.484-0.665-0.85-1.441-0.818C447.674,200.592,447.062,201.011,447.082,201.495z"/>
									<path style="fill:#DD4026;" d="M445.963,199.432c-0.025,0.07,0.934-1.142,2.17-1.463c1.179-0.307,2.065,0.756,2.244,0.51
										c0.179-0.246,0.37-0.79,0.37-0.79s-1.686-0.767-2.807-0.387C446.571,197.767,446.18,198.835,445.963,199.432z"/>
								</g>
								<g>
									<path style="fill:#3E2344;" d="M454.597,200.956c0.02,0.484,0.653,0.546,1.428,0.513c0.776-0.032,1.401-0.146,1.38-0.63
										c-0.02-0.484-0.665-0.85-1.441-0.818C455.189,200.053,454.577,200.472,454.597,200.956z"/>
									<path style="fill:#DD4026;" d="M459.315,198.072c0.036,0.066-1.603-1.1-2.973-1.086c-0.883,0.01-2.613,1.212-2.863,0.997
										c-0.25-0.214-0.521-0.729-0.521-0.729s1.639-1.123,3.488-0.975C457.926,196.399,459.007,197.508,459.315,198.072z"/>
								</g>
								<g>
									<path style="opacity:0.5;fill:#E57E55;" d="M451.27,206.503c0,0,1.789,0.015,1.769-0.476
										c-0.021-0.491-3.738-1.185-3.958-0.841C448.86,205.529,450.477,206.245,451.27,206.503z"/>
									<path style="fill:#E57E55;" d="M450.488,198.293c0,0,1.24,2.068,0.937,2.863c-0.302,0.795-2.043,3.523-2.094,3.905
										c-0.051,0.382,1.802,1.401,1.939,1.462c0.137,0.061-2.681-0.492-2.561-1.369c0.12-0.877,2.346-3.978,2.44-4.407
										C451.242,200.319,450.488,198.293,450.488,198.293z"/>
								</g>
							</g>
						</g>
					</g>
				</g>
				<path style="fill-rule:evenodd;clip-rule:evenodd;fill:#DD4026;" d="M464.347,198.394c-4.746,0.656-15.518-9.505-16.802-9.22
					c-1.396,0.31-2.62,4.953-1.877,9.705c0,0-3.587-8.456,0.665-13.737c4.46-5.539,15.872-4.891,19.54,0.824
					c2.767,4.312,1.512,11.956,1.512,11.956S466.089,198.154,464.347,198.394z"/>
				<g>
					<g>
						<path style="fill-rule:evenodd;clip-rule:evenodd;fill:#552F5E;" d="M468.766,201.083c-0.087,3.34-0.997,6.026-4.132,5.944
							c-2.195-0.057-3.905-2.811-3.818-6.151c0.087-3.34,1.937-6.002,4.132-5.945C468.083,195.013,468.852,197.743,468.766,201.083z
							"/>
						<path style="fill-rule:evenodd;clip-rule:evenodd;fill:#7C4284;" d="M469.706,200.845c-0.072,2.779-1.612,4.994-3.439,4.947
							c-1.827-0.048-3.249-2.339-3.177-5.119c0.072-2.779,1.612-4.994,3.439-4.947C468.356,195.774,469.778,198.066,469.706,200.845
							z"/>
						<path style="fill-rule:evenodd;clip-rule:evenodd;fill:#9D68AA;" d="M469.277,200.834c-0.058,2.23-1.293,4.007-2.759,3.969
							c-1.466-0.038-2.607-1.877-2.549-4.106c0.058-2.23,1.293-4.007,2.759-3.969C468.194,196.765,469.335,198.604,469.277,200.834z
							"/>
					</g>
					<path style="fill:#3E2344;" d="M464.1,195.663c0,0,0.612-10.89-9.877-11.162c-10.489-0.273-9.474,12.471-9.474,12.471
						l-0.782,1.302c0,0-2.67-14.441,9.957-14.999c11.963-0.529,11.357,11.866,11.357,11.866L464.1,195.663z"/>
				</g>
			</g>
		</g>
		<g>
			<path style="fill:#A1ABAD;" d="M326.82,329.219l-211.882,14.092c-5.696-47.586-12.75-95.46-21.188-143.627l211.882-8.298
				L326.82,329.219z"/>
			<g>
				<path style="fill:#E5DACA;" d="M93.75,199.684l211.882-8.298l-111.274-88.157c-2.091-1.369-4.84-1.16-6.7,0.512L93.75,199.684z"
					/>
				<g>
					<g>
						<path style="fill:#71BF9D;" d="M304.987,265.284l-187.272,12.456c-1.389,0.092-2.614-0.904-2.81-2.285L96.199,143.395
							c-0.221-1.564,0.955-2.977,2.53-3.038l187.281-7.335c1.358-0.053,2.537,0.928,2.736,2.275l18.697,126.938
							C307.67,263.775,306.537,265.181,304.987,265.284z"/>
						<g>
							<g>
								<defs>
									
										<ellipse id="SVGID_00000156552296857580099190000007703606719008094907_" transform="matrix(0.6964 -0.7177 0.7177 0.6964 -80.1907 150.7706)" cx="138.098" cy="170.162" rx="23.009" ry="24.435"/>
								</defs>
								<use xlink:href="#SVGID_00000156552296857580099190000007703606719008094907_"  style="overflow:visible;fill:#FFFFFF;"/>
								<clipPath id="SVGID_00000060006898981096117210000006815461855362282171_">
									<use xlink:href="#SVGID_00000156552296857580099190000007703606719008094907_"  style="overflow:visible;"/>
								</clipPath>
								<g style="clip-path:url(#SVGID_00000060006898981096117210000006815461855362282171_);">
									<path style="fill:#C13725;" d="M152.907,184.107c4.503,4.768,9.262,16.967,11.692,23.552c1.65,4.47-3.796,6.858-6.66,2.989
										c-3.508-4.738-8.437-14.368-11.865-21.043C143.842,185.257,148.24,179.166,152.907,184.107z"/>
									<path style="fill:#D8462A;" d="M138.822,179.308c-0.554,0.403-10.68,3.306-12.556,8.538
										c-0.953,2.657,13.489,29.72,13.489,29.72s3.092,3.453,14.063-2.709c0,0,0.308-10.667,0.131-19.476
										c-0.03-1.486-1.621-3.888-1.682-5.207c-0.166-3.572,1.085-5.347,0.585-6.073
										C150.866,181.211,138.822,179.308,138.822,179.308z"/>
									<path style="fill:#F99441;" d="M134.994,155.783c0,0,3.452,2.621,4.199,6.522c0.747,3.901,1.192,10.369,2.368,11.584
										c1.176,1.215,7.854,2.34,7.854,2.34s0.048-14.16-3.912-18.654C142.11,153.724,134.994,155.783,134.994,155.783z"/>
									<g>
										<path style="fill:#FFFFFF;" d="M142.844,170.874c0.516,1.434,1.514,2.424,2.225,2.207c0.711-0.217,0.87-1.56,0.354-2.993
											c-0.349-0.971-0.919-1.727-1.471-2.054c-0.178-0.122-0.068-0.291,0.111-0.169c0.597,0.36,1.187,1.144,1.554,2.164
											c0.564,1.568,0.355,2.995-0.477,3.249c-0.831,0.254-1.924-0.776-2.489-2.345c-0.296-0.822-0.396-1.486-0.289-2.082
											c0.045,0.028,0.148,0.069,0.197,0.098C142.492,169.492,142.584,170.151,142.844,170.874z"/>
									</g>
									<path style="fill:#F99441;" d="M143.908,164.353c0.885,4.882-1.587,8.186-6.109,8.738c-5.785,0.706-8.905-2.961-9.79-7.843
										c-0.885-4.882,2.249-8.264,6.77-8.816C139.301,155.88,142.651,157.422,143.908,164.353z"/>
									<path style="fill:#FFC49C;" d="M133.609,170.583c0,0,2.389,8.751,1.141,10.158c-1.8,2.029-2.609,1.981-2.338,3.208
										c0.688,3.105,6.692,5.504,9.25,5.026c2.936-0.549,5.477-3.968,5.035-6.239c-0.273-1.402-1.498-1.349-5.021-2.955
										c-0.971-0.443-1.86-9.316-1.86-9.316L133.609,170.583z"/>
									<path style="fill:#FFC49C;" d="M143.203,162.963c-0.561-3.096-2.794-5.26-5.788-4.902
										c-2.192,0.262-7.021,1.525-4.812,6.423c0.418,0.926,0.507,1.702,0.492,2.409c-0.065-0.091-0.119-0.176-0.192-0.271
										c-0.395-0.513-1.64-1.717-2.56-0.852c-0.919,0.866-0.033,3.137,1.128,3.954c0.432,0.304,1.092,0.41,1.621,0.254
										c0.012,0.045,0.021,0.09,0.036,0.135c0.952,3.022,4.505,5.171,7.353,4.823c2.848-0.348,4.387-1.621,3.803-5.977
										C144.082,167.452,143.203,162.963,143.203,162.963z"/>
									<g>
										<g>
											<path style="fill:#1E1C1C;" d="M136.621,165.492c0.013,0,0.013-0.02,0-0.02
												C136.608,165.473,136.608,165.492,136.621,165.492L136.621,165.492z"/>
										</g>
									</g>
									<path style="fill:#F99441;" d="M141.289,159.214c0.945,0.664,2.377,3.81,2.377,3.81s2.94-9.101-5.8-9.01
										c-6.916,0.072-8.459,4.053-7.642,7.299c0.754,2.995,3.535,6.428,3.535,6.428s0.215-0.581,0.063-2.679
										C133.659,162.798,139.317,157.829,141.289,159.214z"/>
									<g>
										<path style="fill:#E57E55;" d="M131.973,168.396l0.761-0.426c0,0-0.28-0.713-0.507-0.977
											c-0.267-0.312-1.138-1.185-1.652-0.585c-0.514,0.6,0.119,2.218,0.892,2.683c0.452,0.272,0.726,0.038,0.726,0.038
											L131.973,168.396z"/>
									</g>
									<path style="fill:#3E2344;" d="M129.81,161.019l2.777,1.307c0.117,0.055,0.251,0.01,0.303-0.101l0.354-0.753
										c0.055-0.117-0.001-0.263-0.124-0.321l-2.818-1.335c-0.122-0.058-0.261-0.007-0.309,0.113l-0.313,0.781
										C129.634,160.826,129.691,160.963,129.81,161.019z"/>
									<path style="fill:#D8462A;" d="M125.72,188.125c-2.617,5.636-2.842,18.444-2.832,25.324
										c0.007,4.671,6.065,5.655,7.432,1.27c1.675-5.37,2.975-15.761,3.886-22.966C134.8,187.06,128.432,182.284,125.72,188.125z"
										/>
									<g>
										<path style="fill:#FFFFFF;" d="M131.193,171.408c0.269,1.486,1.094,2.621,1.839,2.53c0.745-0.091,1.132-1.374,0.862-2.859
											c-0.182-1.006-0.621-1.84-1.115-2.253c-0.157-0.149-0.018-0.295,0.139-0.146c0.533,0.452,0.987,1.317,1.179,2.374
											c0.295,1.626-0.157,2.982-1.028,3.088c-0.871,0.106-1.784-1.083-2.079-2.709c-0.154-0.852-0.142-1.517,0.067-2.08
											c0.04,0.035,0.136,0.093,0.18,0.129C131.078,170.001,131.058,170.66,131.193,171.408z"/>
									</g>
									<g>
										<path style="fill:#FFFFFF;" d="M142.061,169.489c0,0-1.116-0.795-4.22-0.079
											C138.507,171.053,142.141,171.358,142.061,169.489z"/>
										<path style="fill:#E57E55;" d="M141.98,169.533c-0.232-0.084-0.633-0.194-0.962-0.211
											c-0.346-0.03-0.695-0.041-1.045-0.014c-0.698,0.048-1.396,0.156-2.082,0.324l0.16-0.307
											c0.318,0.712,1.202,1.123,2.029,1.215c0.418,0.055,0.859,0.036,1.233-0.124c0.193-0.07,0.351-0.195,0.472-0.35
											c0.066-0.075,0.086-0.176,0.136-0.265C141.938,169.712,141.953,169.631,141.98,169.533z M142.142,169.445
											c0.097,0.568-0.236,1.04-0.684,1.27c-0.448,0.225-0.943,0.272-1.418,0.242c-0.477-0.042-0.946-0.171-1.378-0.396
											c-0.427-0.222-0.836-0.571-1.031-1.066l-0.002-0.006c-0.045-0.115,0.011-0.245,0.126-0.29l0.036-0.011
											c0.711-0.151,1.436-0.274,2.173-0.263c0.367,0,0.737,0.022,1.1,0.095C141.439,169.112,141.755,169.163,142.142,169.445z"
											/>
									</g>
									<path style="fill:#3E2344;" d="M138.339,165.484c0.028,0.289-0.342,0.355-0.804,0.373c-0.462,0.017-0.842-0.021-0.87-0.31
										c-0.028-0.289,0.324-0.538,0.786-0.555C137.914,164.974,138.311,165.195,138.339,165.484z"/>
									<path style="fill:#3E2344;" d="M142.575,165.326c0.028,0.289-0.341,0.355-0.804,0.373c-0.462,0.017-0.842-0.021-0.87-0.31
										c-0.028-0.289,0.324-0.538,0.786-0.555C142.15,164.816,142.547,165.037,142.575,165.326z"/>
									<path style="fill:#F99441;" d="M143.304,164.017c0.021,0.04-1.223-0.79-1.507-0.74c-0.284,0.051-1.279,0.582-1.412,0.446
										c-0.133-0.136-0.296-0.45-0.296-0.45s1.452-0.469,1.786-0.407C142.208,162.928,143.121,163.673,143.304,164.017z"/>
									<path style="fill:#F99441;" d="M135.305,163.989c-0.016,0.041,1.316-0.729,1.69-0.681c0.374,0.048,1.631,0.493,1.761,0.354
										c0.13-0.139,0.248-0.459,0.248-0.459s-1.785-0.369-2.19-0.303C136.408,162.967,135.441,163.639,135.305,163.989z"/>
									<g>
										<path style="opacity:0.5;fill:#E57E55;" d="M140.676,168.06c0,0-1.059,0.093-1.088-0.2
											c-0.029-0.293,2.117-0.881,2.276-0.687C142.023,167.367,141.125,167.869,140.676,168.06z"/>
										<path style="fill:#E57E55;" d="M140.058,163.629c0,0-0.068,1.366,0.177,1.825c0.245,0.459,1.406,1.42,1.468,1.645
											c0.062,0.225-0.952,0.919-1.028,0.962c-0.076,0.043,1.548-0.419,1.404-0.935c-0.144-0.517-1.624-1.676-1.715-1.927
											C140.274,164.947,140.058,163.629,140.058,163.629z"/>
									</g>
								</g>
							</g>
							<g>
								<g>
									<path style="fill:#FFFFFF;" d="M288.45,250.473l-158.448,7.687c-2.104,0.102-3.944-1.406-4.255-3.49l-7.134-51.696
										c-0.36-2.406,1.442-4.595,3.872-4.704l158.34-7.127c2.058-0.093,3.866,1.356,4.224,3.385l7.242,51.136
										C292.72,248.096,290.918,250.354,288.45,250.473z"/>
									<g>
										<path style="fill:#A1ABAD;" d="M271.618,203.163l-141.701,6.076c-0.804,0.034-1.501-0.55-1.608-1.347l-0.001-0.008
											c-0.121-0.906,0.561-1.72,1.475-1.76l141.702-6.068c0.839-0.036,1.555,0.601,1.617,1.439l0,0
											C273.167,202.371,272.495,203.126,271.618,203.163z"/>
									</g>
									<path style="fill:#A1ABAD;" d="M274.218,208.723L274.218,208.723c-0.059-0.84-0.776-1.48-1.617-1.444l-141.847,6.068
										c-0.915,0.039-1.598,0.857-1.474,1.764l0.001,0.009c0.109,0.795,0.805,1.376,1.607,1.342l141.846-6.076
										C273.608,210.348,274.279,209.596,274.218,208.723z"/>
									<g>
										<path style="fill:#A1ABAD;" d="M196.328,217.813l-64.619,2.766c-0.905,0.039-1.582,0.846-1.462,1.744l0.005,0.034
											c0.106,0.79,0.797,1.37,1.594,1.336l64.618-2.77c0.904-0.039,1.588-0.845,1.469-1.742
											c-0.001-0.01-0.003-0.021-0.004-0.031C197.824,218.36,197.126,217.779,196.328,217.813z"/>
									</g>
									<g>
										<path style="fill:#A1ABAD;" d="M220.936,224.027l-88.256,3.774c-0.908,0.039-1.586,0.85-1.463,1.75l0.006,0.043
											c0.108,0.789,0.799,1.367,1.595,1.332l88.252-3.785c0.859-0.037,1.536-0.77,1.474-1.627
											c-0.001-0.01-0.001-0.021-0.002-0.031C222.482,224.641,221.78,223.991,220.936,224.027z"/>
									</g>
									<g>
										<path style="fill:#A1ABAD;" d="M133.155,244.024l0.001,0.01c0.107,0.797,0.803,1.381,1.607,1.346l72.514-3.104
											c0.86-0.037,1.538-0.766,1.486-1.626c-0.001-0.021-0.003-0.042-0.004-0.062c-0.052-0.834-0.782-1.463-1.617-1.428
											l-72.513,3.105C133.716,242.305,133.033,243.119,133.155,244.024z"/>
									</g>
								</g>
								<g>
									<path style="fill:#FFFFFF;" d="M274.926,163.642l-100.602,4.881c-1.336,0.065-2.504-0.893-2.702-2.216l-0.732-4.894
										c-0.229-1.528,0.915-2.917,2.459-2.987l100.534-4.525c1.307-0.059,2.454,0.861,2.682,2.149l0.801,4.538
										C277.637,162.133,276.492,163.566,274.926,163.642z"/>
									<path style="fill:#FFFFFF;" d="M277.581,179.906l-100.602,4.881c-1.336,0.065-2.504-0.893-2.702-2.216l-0.732-4.894
										c-0.229-1.528,0.915-2.918,2.458-2.987l100.534-4.525c1.307-0.059,2.454,0.861,2.682,2.149l0.801,4.538
										C280.292,178.397,279.148,179.831,277.581,179.906z"/>
									<g>
										<path style="fill:#A1ABAD;" d="M241.27,158.843l-64.824,3.336c-0.9,0.046-1.569,0.852-1.45,1.745l0.005,0.035
											c0.107,0.796,0.806,1.377,1.608,1.336l64.824-3.34c0.899-0.046,1.575-0.85,1.457-1.742
											c-0.001-0.01-0.003-0.021-0.004-0.031C242.779,159.384,242.073,158.802,241.27,158.843z"/>
									</g>
									<g>
										<path style="fill:#A1ABAD;" d="M231.116,176.003l-51.272,2.74c-0.899,0.048-1.566,0.853-1.447,1.745l0.005,0.035
											c0.107,0.797,0.808,1.379,1.612,1.336l51.272-2.743c0.898-0.048,1.572-0.851,1.454-1.743
											c-0.001-0.01-0.003-0.021-0.004-0.031C232.629,176.543,231.921,175.96,231.116,176.003z"/>
									</g>
								</g>
							</g>
						</g>
					</g>
					<g>
						<path style="opacity:0.8;fill:#E5DACA;" d="M93.75,199.684l108.78,58.041c0,0,4.82-6.022,11.162-6.839
							c6.342-0.817,12.142,5.747,12.142,5.747l79.798-65.248l-89.148,97.658L93.75,199.684z"/>
					</g>
				</g>
				<g>
					<path style="fill:#EFE9DA;" d="M93.75,199.684l123.114,74.389l89.082-81.288l21.188,137.833L115.253,344.71
						C108.239,297.407,101.065,249.024,93.75,199.684z"/>
					<path style="opacity:0.3;fill:#FFFFFF;" d="M93.75,199.684c0,0,8.375,26.275,15.033,72.711
						c6.658,46.437,6.155,70.915,6.155,70.915L93.75,199.684z"/>
				</g>
				<g>
					<path style="opacity:0.5;fill:#D8D0BF;" d="M204.657,266.697c0,0-90.373,78.883-89.405,78.013
						c0.968-0.87,23.72-24.466,40.141-40.449C171.815,288.277,195.021,269.932,204.657,266.697z"/>
					<path style="fill:#FCF7F0;" d="M115.252,344.71l211.882-14.092l-109.942-71.991c-2.091-1.37-4.84-1.16-6.7,0.512
						L115.252,344.71z"/>
				</g>
			</g>
		</g>
		<g>
			<path style="fill:#FFDCAE;" d="M289.994,309.435c0,0-8.735,79.052-10.586,108.005c-0.145,2.262,6.451,4.028,7.171,0
				c4.526-25.329,17.527-108.005,17.527-108.005H289.994z"/>
			<path style="fill:#F99441;" d="M315.055,309.435c0,0-7.435,74.854-9.01,99.498c-0.123,1.925,5.491,3.429,6.104,0
				c3.852-21.56,14.919-99.498,14.919-99.498H315.055z"/>
			<path style="fill:#FFDCAE;" d="M502.809,309.435c0,0,8.735,79.052,10.586,108.005c0.145,2.262-6.451,4.028-7.171,0
				c-4.526-25.329-17.527-108.005-17.527-108.005H502.809z"/>
			<path style="fill:#F99441;" d="M522.683,309.435c0,0,7.435,74.854,9.01,99.498c0.123,1.925-5.491,3.429-6.104,0
				c-3.852-21.56-14.919-99.498-14.919-99.498H522.683z"/>
			<polygon style="fill:#F99441;" points="505.047,313.552 285.746,313.552 282.153,299.757 506.871,299.757 			"/>
			<polygon style="fill:#D36D29;" points="525.367,311.606 505.047,313.552 506.871,299.757 528.43,299.757 			"/>
			<g>
				<rect x="269.918" y="296.078" style="fill:#FFCC5A;" width="243.479" height="7.358"/>
				<polygon style="fill:#F99441;" points="537.336,302.438 513.397,303.436 513.397,296.078 537.336,295.08 				"/>
				<polygon style="fill:#FFE3A4;" points="269.918,296.078 314.769,295.08 537.336,295.08 513.397,296.078 				"/>
				<g>
					<path style="fill:#3C8460;" d="M303.74,286.396c0,0-6.549-14.934,2.3-14.934s2.329,14.933,2.329,14.933
						C308.367,286.419,305.416,286.468,303.74,286.396z"/>
					<path style="opacity:0.5;fill:#71BF9D;" d="M304.265,286.396c0,0-5.056-14.934,1.776-14.934s1.798,14.933,1.798,14.933
						C307.838,286.419,305.559,286.468,304.265,286.396z"/>
					<g>
						<g>
							<path style="fill:#DD4026;" d="M315.252,286.643l-0.073,1.079l-0.083,1.256l-0.093,1.546l-0.031,0.477l-0.301,4.368
								c0.01,0.446-17.069,0.654-17.08,0.207l-0.374-4.576l-0.021-0.249l-0.135-1.567l-0.125-1.463l-0.083-1.069
								c-0.041-0.498,0.353-0.923,0.851-0.923h16.685C314.889,285.73,315.283,286.145,315.252,286.643z"/>
						</g>
					</g>
					<polygon style="fill:#FF8976;" points="315.18,287.722 315.097,288.978 315.003,290.524 314.972,291.001 297.218,291.001 
						297.197,290.752 297.062,289.185 296.938,287.722 					"/>
				</g>
			</g>
			<g>
				<path style="fill:#9D68AA;" d="M425.433,295.08h-87.998v-1.314c0-1.286,1.042-2.328,2.328-2.328h83.343
					c1.286,0,2.328,1.042,2.328,2.328V295.08z"/>
				<g>
					<g>
						<g>
							<path style="fill:#552F5E;" d="M404.409,281.169h-69.956c-0.703,0-1.295-0.494-1.438-1.174l-13.019-51.219l-0.318-1.218
								c-0.176-0.889,2.711-3.085,3.622-3.107l71.383-0.615c0.966,0,1.614,0.296,2.053,0.691c0.746,0.67,0.9,1.658,0.988,2.097
								l9.923,51.482C407.922,279.215,405.902,281.169,404.409,281.169z"/>
							<path style="fill:#E4BCE8;" d="M396.736,224.528c-0.944,0.845-2.031,1.811-2.382,2.097c0,0-73.546,2.064-73.919,2.195
								c-0.066,0.022-0.22,0-0.439-0.044l-0.318-1.218c-0.176-0.889,2.711-3.085,3.622-3.107l71.383-0.615
								C395.65,223.836,396.297,224.133,396.736,224.528z"/>
							<path style="fill:#8D5B99;" d="M404.271,281.171h-72.014c-0.698,0-1.299-0.494-1.434-1.179l-11.118-52.025
								c-0.175-0.889,0.493-1.721,1.399-1.743l72.756-0.646c0.711-0.017,1.331,0.48,1.469,1.178l10.377,52.671
								C405.882,280.33,405.191,281.171,404.271,281.171z"/>
							<path style="fill:#552F5E;" d="M398.855,274.726c0.154,0.746-1.438,2.525-2.678,2.525h-57.52
								c-0.582,0-1.076-0.406-1.185-0.977l-11.109-43.129l-0.088-0.318c-0.143-0.735,2.239-2.547,2.986-2.569l60.033-0.34
								c0.362-0.011,0.691,0.143,0.922,0.406c0.143,0.154,0.241,0.351,0.285,0.571L398.855,274.726z"/>
							<path style="fill:#C899CE;" d="M390.216,230.324l-2.722,2.053l-61.131,0.768l-0.088-0.318
								c-0.143-0.735,2.239-2.547,2.986-2.569l60.033-0.34C389.656,229.907,389.985,230.06,390.216,230.324z"/>
							<path style="fill:#E4BCE8;" d="M396.067,277.25h-59.221c-0.582,0-1.076-0.406-1.186-0.977l-7.816-36.18l-0.922-4.127
								l-0.626-2.799c-0.143-0.735,0.406-1.427,1.153-1.438l60.033-0.351c0.582-0.011,1.098,0.406,1.207,0.977l0.571,2.92l0.9,4.522
								l7.091,36.016C397.395,276.559,396.835,277.25,396.067,277.25z"/>
						</g>
						<g>
							<polygon style="fill:#552F5E;" points="372.436,237.788 344.608,237.933 344.403,237.102 372.241,236.988 							"/>
							<polygon style="fill:#552F5E;" points="372.768,239.257 344.939,239.401 344.734,238.57 372.572,238.457 							"/>
							<polygon style="fill:#552F5E;" points="373.099,240.726 345.271,240.87 345.066,240.039 372.904,239.926 							"/>
							<polygon style="fill:#552F5E;" points="373.431,242.194 345.603,242.339 345.397,241.508 373.236,241.394 							"/>
						</g>
					</g>
					<g>
						<polygon style="fill:#552F5E;" points="349.414,254.325 371.193,254.309 364.834,295.08 343.255,295.08 						"/>
						<polygon style="fill:#9D68AA;" points="349.414,254.325 369.141,254.309 362.782,295.08 343.255,295.08 						"/>
					</g>
					<g>
						<rect x="349.264" y="252.273" style="fill:#764582;" width="22.08" height="4.088"/>
						<ellipse style="fill:#9D68AA;" cx="371.283" cy="254.317" rx="1.108" ry="2.044"/>
						<path style="fill:#764582;" d="M348.281,254.317c0-1.129,0.44-2.044,0.983-2.044c0.543,0,0.983,0.915,0.983,2.044
							c0,1.129-0.44,2.044-0.983,2.044C348.721,256.361,348.281,255.446,348.281,254.317z"/>
					</g>
				</g>
			</g>
		</g>
		<g>
			
				<ellipse transform="matrix(0.7071 -0.7071 0.7071 0.7071 45.1859 441.7603)" style="fill:#FFB072;" cx="555.845" cy="166.336" rx="26.922" ry="26.922"/>
			<g>
				<rect x="536.31" y="154.141" style="fill:#D3D3D3;" width="38.483" height="24.489"/>
				<polygon style="fill:#E2E2E2;" points="574.793,178.63 536.31,178.63 555.551,166.386 				"/>
				<path style="fill:#D3D3D3;" d="M536.31,154.141l18.073,15.935c0.674,0.594,1.663,0.594,2.337,0l18.073-15.935H536.31z"/>
				<path style="fill:#F4F4F4;" d="M536.31,154.141l18.073,14.644c0.674,0.546,1.663,0.546,2.337,0l18.073-14.644H536.31z"/>
			</g>
		</g>
		<g>
			
				<ellipse transform="matrix(0.7071 -0.7071 0.7071 0.7071 -3.6634 461.9943)" style="fill:#7C4284;" cx="555.845" cy="235.419" rx="26.922" ry="26.922"/>
			<g>
				<path style="fill:#FFFFFF;" d="M548.849,231.446c1.367,0.025,2.812-0.309,4.165-1.041l2.06-1.114
					c0.724-0.392,1.043-1.206,0.711-1.819l-4.84-8.952c-0.331-0.613-1.187-0.792-1.911-0.401l-2.06,1.114
					c-2.118,1.145-3.626,2.989-4.044,4.973c-0.842,3.988,2.676,13.338,4.837,17.346c2.175,4.033,9.016,12.565,12.727,13.409
					c1.659,0.377,3.559,0.002,5.293-0.935l2.06-1.114c0.724-0.392,1.043-1.206,0.711-1.819l-4.84-8.952
					c-0.331-0.613-1.187-0.792-1.911-0.401l-2.06,1.114c-1.396,0.755-2.489,1.823-3.217,3.025
					C553.513,241.51,550.956,236.696,548.849,231.446z"/>
				
					<rect x="550.694" y="217.858" transform="matrix(0.8797 -0.4756 0.4756 0.8797 -40.312 289.0957)" style="fill:#E2E2E2;" width="0.862" height="12.699"/>
				
					<rect x="563.466" y="241.48" transform="matrix(0.8796 -0.4757 0.4757 0.8796 -50.0041 298.0753)" style="fill:#E2E2E2;" width="0.863" height="12.699"/>
			</g>
		</g>
		<g>
			
				<ellipse transform="matrix(0.7071 -0.7071 0.7071 0.7071 65.4493 490.7152)" style="fill:#FFD25A;" cx="625.07" cy="166.353" rx="26.922" ry="26.922"/>
			<g>
				<path style="fill:#DD4026;" d="M636.509,162.026c0,8.946-11.93,22.478-11.93,22.478s-11.929-13.436-11.929-22.478
					c0-6.588,5.341-11.929,11.929-11.929C631.168,150.097,636.509,155.438,636.509,162.026z"/>
				<circle style="fill:#FFFFFF;" cx="624.58" cy="162.026" r="7.554"/>
			</g>
		</g>
		<g>
			
				<ellipse transform="matrix(0.7071 -0.7071 0.7071 0.7071 16.5999 510.9493)" style="fill:#FF8976;" cx="625.07" cy="235.437" rx="26.922" ry="26.922"/>
			
				<ellipse style="fill:none;stroke:#3C8460;stroke-width:1.1603;stroke-miterlimit:10;" cx="625.07" cy="235.514" rx="11.546" ry="16.156"/>
			<g>
				
					<ellipse transform="matrix(0.7071 -0.7071 0.7071 0.7071 16.5453 510.9719)" style="fill:#83B6E5;" cx="625.07" cy="235.514" rx="16.156" ry="16.156"/>
				<path style="fill:#FFFFFF;" d="M625.07,218.777c-9.229,0-16.737,7.508-16.737,16.737s7.508,16.737,16.737,16.737
					c9.229,0,16.737-7.508,16.737-16.737S634.299,218.777,625.07,218.777z M621.247,246.132c-5.901-1.055-10.475-4.477-11.525-8.745
					c2.01,1.331,6.103,2.197,10.621,2.552C620.518,242.158,620.82,244.287,621.247,246.132z M640.627,235.189
					c0.005,0.109,0.02,0.215,0.02,0.325s-0.015,0.216-0.02,0.325c-0.621,1.183-4.521,2.592-10.763,3.089
					c0.068-1.131,0.107-2.276,0.107-3.414c0-1.137-0.039-2.282-0.107-3.413C636.106,232.597,640.006,234.006,640.627,235.189z
					 M628.926,235.514c0,1.227-0.039,2.386-0.106,3.486c-1.179,0.071-2.426,0.113-3.75,0.113c-1.324,0-2.572-0.042-3.751-0.113
					c-0.066-1.101-0.106-2.26-0.106-3.486c0-1.226,0.039-2.385,0.106-3.485c1.179-0.071,2.427-0.113,3.751-0.113
					c1.324,0,2.572,0.042,3.75,0.113C628.887,233.129,628.926,234.288,628.926,235.514z M609.514,235.839
					c-0.004-0.109-0.02-0.215-0.02-0.325s0.015-0.216,0.02-0.325c0.621-1.183,4.521-2.592,10.761-3.088
					c-0.068,1.131-0.106,2.275-0.106,3.413c0,1.138,0.039,2.283,0.107,3.414C614.035,238.431,610.134,237.021,609.514,235.839z
					 M625.07,230.904c-1.227,0-2.463,0.042-3.682,0.116c0.198-2.474,0.548-4.592,0.979-6.296c0.88-0.109,1.78-0.177,2.703-0.177
					c0.923,0,1.823,0.068,2.702,0.176c0.431,1.704,0.781,3.822,0.979,6.296C627.533,230.946,626.297,230.904,625.07,230.904z
					 M620.343,231.09c-4.518,0.355-8.612,1.22-10.621,2.551c1.05-4.267,5.624-7.69,11.525-8.745
					C620.819,226.741,620.517,228.871,620.343,231.09z M625.07,240.124c1.227,0,2.463-0.042,3.681-0.116
					c-0.198,2.473-0.547,4.591-0.979,6.295c-0.879,0.109-1.779,0.176-2.702,0.176c-0.923,0-1.823-0.068-2.703-0.177
					c-0.431-1.704-0.781-3.821-0.979-6.294C622.607,240.083,623.843,240.124,625.07,240.124z M629.796,239.939
					c4.519-0.355,8.613-1.221,10.623-2.552c-1.05,4.268-5.625,7.69-11.526,8.745C629.32,244.288,629.622,242.158,629.796,239.939z
					 M629.797,231.09c-0.174-2.219-0.476-4.349-0.904-6.194c5.902,1.054,10.476,4.477,11.526,8.745
					C638.409,232.31,634.315,231.445,629.797,231.09z M639.25,229.102c-2.366-2.736-6.183-4.746-10.675-5.442
					c-0.429-1.505-0.955-2.744-1.574-3.59C632.466,220.75,637.054,224.267,639.25,229.102z M624.755,219.953
					c0.106-0.002,0.209-0.016,0.316-0.016c0.107,0,0.21,0.014,0.316,0.016c0.673,0.301,1.416,1.547,2.049,3.57
					c-0.775-0.08-1.56-0.135-2.365-0.135s-1.59,0.055-2.365,0.135C623.338,221.5,624.082,220.254,624.755,219.953z M623.139,220.07
					c-0.619,0.846-1.145,2.084-1.574,3.59c-4.492,0.697-8.309,2.706-10.674,5.442C613.087,224.267,617.674,220.75,623.139,220.07z
					 M610.891,241.926c2.365,2.736,6.182,4.745,10.674,5.442c0.429,1.505,0.955,2.744,1.574,3.59
					C617.674,250.277,613.087,246.761,610.891,241.926z M625.386,251.074c-0.106,0.002-0.209,0.016-0.316,0.016
					c-0.107,0-0.21-0.014-0.316-0.016c-0.673-0.301-1.417-1.547-2.049-3.57c0.775,0.08,1.56,0.135,2.365,0.135
					s1.59-0.055,2.365-0.135C626.802,249.528,626.059,250.773,625.386,251.074z M627.001,250.958
					c0.619-0.846,1.145-2.084,1.574-3.59c4.492-0.697,8.31-2.706,10.675-5.442C637.054,246.761,632.466,250.278,627.001,250.958z"/>
			</g>
		</g>
		<g>
			<path style="fill:#FFD25A;" d="M430.615,136.895h-67.758c-5.936,0-10.749,4.812-10.749,10.749v17.102
				c0,5.936,4.812,10.749,10.749,10.749h44.538l16.995,27.464l-5.515-27.464h11.74c5.936,0,10.749-4.813,10.749-10.749v-17.102
				C441.364,141.708,436.551,136.895,430.615,136.895z"/>
			<g>
				<path style="fill:#3E2344;" d="M383.238,155.474c0,1.717-1.392,3.109-3.108,3.109s-3.108-1.392-3.108-3.109
					c0-1.717,1.392-3.108,3.108-3.108S383.238,153.757,383.238,155.474z"/>
				<path style="fill:#3E2344;" d="M399.845,155.474c0,1.717-1.392,3.109-3.108,3.109s-3.108-1.392-3.108-3.109
					c0-1.717,1.392-3.108,3.108-3.108S399.845,153.757,399.845,155.474z"/>
				<path style="fill:#3E2344;" d="M416.452,155.474c0,1.717-1.392,3.109-3.108,3.109c-1.717,0-3.109-1.392-3.109-3.109
					c0-1.717,1.392-3.108,3.109-3.108C415.06,152.365,416.452,153.757,416.452,155.474z"/>
			</g>
		</g>
		<g>
			<g>
				<path style="fill:#9D68AA;" d="M581.185,375.033v25.988c0,5.936,39.876,5.936,39.876,0l0-26.251L581.185,375.033z"/>
				<path style="fill:#764582;" d="M581.185,373.35v4.535c0,0,2.917,2.634,19.938,2.634c17.021,0,19.938-2.897,19.938-2.897v-4.272
					H581.185z"/>
				<ellipse style="fill:#E4BCE8;" cx="601.123" cy="373.35" rx="19.938" ry="2.452"/>
				<ellipse style="fill:#261F28;" cx="601.123" cy="373.35" rx="18.254" ry="1.742"/>
				<path style="fill:#71BF9D;" d="M599.637,373.651c0,0-4.154-5.321-9.799-7.974c-5.669-2.664-12.328-5.081-12.223-9.42
					c0.106-4.34,18.332-8.851,23.473,17.327C601.17,374.372,600.06,374.282,599.637,373.651z"/>
				<path style="opacity:0.3;fill:#3C8460;" d="M599.967,373.773c0,0-3.556-5.776-7.587-8.375c-4.495-2.898-9.428-3.36-9.347-6.697
					c0.081-3.337,12.829-4.179,18.05,15.02C601.146,374.328,600.292,374.259,599.967,373.773z"/>
				<path style="fill:#3C8460;" d="M600.549,374.149c0,0-4.877-9.892-15.095-16.298c0,0,10.841,4.983,15.61,16.126L600.549,374.149z
					"/>
				<path style="fill:#71BF9D;" d="M601.064,373.977c0,0-1.704-8.538-5.182-14.742c-4.271-7.618-7.745-14.289-3.803-17.282
					c4.103-3.115,19.263,2.933,10.24,31.982C602.2,374.542,601.827,374.769,601.064,373.977z"/>
				<path style="opacity:0.3;fill:#3C8460;" d="M601.064,374.039c0,0-1.242-7.743-3.777-13.368
					c-3.113-6.908-5.644-12.957-2.771-15.671c2.99-2.825,14.039,2.66,7.463,29.001C601.892,374.552,601.62,374.757,601.064,374.039z
					"/>
				<path style="fill:#3C8460;" d="M601.064,373.977c0,0,1.387-8.449-3.879-24.048c0,0,5.5,6.482,5.134,24.006
					C602.319,373.935,601.661,375.273,601.064,373.977z"/>
				<path style="fill:#71BF9D;" d="M612.779,362.226c-5.78,4.14-9.474,11.497-9.474,11.497c-0.145,0.322-0.425,0.498-0.695,0.529
					c-0.384,0.052-0.768-0.207-0.809-0.83c0.343-30.414,21.718-29.127,22.735-24.292
					C625.552,353.977,618.579,358.065,612.779,362.226z"/>
				<path style="opacity:0.3;fill:#3C8460;" d="M609.558,362.236c-4.365,4.247-6.469,11.564-6.469,11.564
					c-0.124,0.276-0.364,0.427-0.596,0.453c-0.329,0.044-0.658-0.178-0.693-0.711c2.596-25.276,16.876-25.776,18.354-21.81
					C621.061,354.165,615.015,356.926,609.558,362.236z"/>
				<path style="fill:#3C8460;" d="M614.211,353.613c-10.19,9.163-11.362,19.736-11.362,19.736s-0.093,0.353-0.239,0.903
					c-0.384,0.052-0.768-0.207-0.809-0.83C605.017,357.224,614.211,353.613,614.211,353.613z"/>
			</g>
			<path style="fill:#261F28;" d="M599.486,374.259c0,0-1.524-0.999-1.386-1.311s2.365,1.036,2.365,1.036s-1.261-1.556-0.704-1.902
				c0.557-0.346,1.734,1.732,1.769,1.628c0.035-0.104,0.173-2.425,1.316-2.46c1.143-0.035,0.208,2.39,0.208,2.39
				s1.594-1.49,2.356-0.658C606.172,373.814,602.5,375.431,599.486,374.259z"/>
		</g>
	</g>
</g>
<g id="DESIGNED_BY_FREEPIK">
	<g>
		<g id="XMLID_319_">
			<g id="XMLID_338_">
				<path id="XMLID_346_" style="fill:#112129;" d="M385.104,465.465c-0.432,0.443-0.803,0.931-1.108,1.453l-0.465-0.241
					c-0.067-0.298-0.349-0.503-0.659-0.466c-0.331,0.039-0.568,0.339-0.529,0.67c0.039,0.331,0.339,0.568,0.67,0.529
					c0.066-0.008,0.127-0.026,0.184-0.052l0.451,0.234c-0.251,0.554-0.433,1.139-0.539,1.744l0.747,0.132
					c0.23-1.306,0.85-2.507,1.792-3.473L385.104,465.465z"/>
				<path id="XMLID_345_" style="fill:#112129;" d="M390.592,463.163c-0.171,0-0.341,0.006-0.51,0.017l-0.074-0.626
					c0.188-0.149,0.296-0.389,0.266-0.645c-0.046-0.393-0.402-0.674-0.795-0.628c-0.393,0.046-0.674,0.402-0.628,0.795
					c0.03,0.254,0.189,0.461,0.404,0.564l0.074,0.624c-0.714,0.116-1.403,0.332-2.06,0.646l0.327,0.684
					c0.934-0.447,1.942-0.673,2.995-0.673c0.496,0,0.993,0.053,1.475,0.158l0.161-0.741
					C391.692,463.222,391.142,463.163,390.592,463.163z"/>
				<path id="XMLID_344_" style="fill:#112129;" d="M397.194,465.711c0.331-0.04,0.566-0.341,0.526-0.672
					c-0.04-0.331-0.341-0.566-0.672-0.526c-0.309,0.038-0.535,0.304-0.53,0.609l-0.416,0.363c-0.418-0.43-0.889-0.813-1.408-1.139
					l-0.404,0.641c1.134,0.715,2.021,1.726,2.563,2.925l0.69-0.313c-0.251-0.554-0.567-1.072-0.942-1.545l0.402-0.351
					C397.065,465.716,397.129,465.719,397.194,465.711z"/>
				<path id="XMLID_343_" style="fill:#112129;" d="M390.044,473.372c-0.386,0.023-0.775,0.035-1.157,0.035
					c-0.88,0-1.733-0.061-2.478-0.179c-0.39-0.062-0.846-0.155-1.27-0.292c1.046,1.861,3.069,3.125,5.388,3.125
					c2.855,0,5.262-1.916,5.95-4.504c-0.682,0.449-1.505,0.825-2.459,1.123C392.839,473.047,391.463,473.286,390.044,473.372z"/>
				<path id="XMLID_339_" style="fill:#112129;" d="M390.592,464.68c-3.352,0-6.08,2.666-6.08,5.943
					c0,0.426,0.046,0.849,0.137,1.261c0.673,0.483,2.706,0.89,5.348,0.731c2.879-0.173,5.297-0.957,6.672-2.159
					c-0.006-0.195-0.021-0.39-0.045-0.582C396.244,466.913,393.65,464.68,390.592,464.68z M388.432,471.194
					c-1.02,0-1.85-0.83-1.85-1.85c0-1.02,0.83-1.85,1.85-1.85c1.02,0,1.85,0.83,1.85,1.85
					C390.282,470.365,389.452,471.194,388.432,471.194z M393.17,470.286c-0.75,0-1.36-0.61-1.36-1.36s0.61-1.361,1.36-1.361
					c0.75,0,1.361,0.61,1.361,1.361S393.92,470.286,393.17,470.286z"/>
			</g>
			<path id="XMLID_336_" style="fill:#112129;" d="M406.595,466.547c-0.295-0.116-0.805-0.309-1.382-0.237
				c-0.551,0.069-0.844,0.341-0.844,1.007v0.866h2.228v1.717h-2.228v5.455h-1.932v-5.455h-1.34v-1.717h1.34v-0.888
				c0-1.68,0.896-2.783,2.568-2.783c0.643,0,1.157,0.122,1.59,0.308L406.595,466.547z"/>
			<path id="XMLID_334_" style="fill:#112129;" d="M411.298,469.879c-0.177-0.03-0.358-0.046-0.526-0.046
				c-0.896,0-1.51,0.548-1.51,1.614v3.908h-1.932v-7.172h1.873v0.785c0.451-0.673,1.14-0.977,2.021-0.977
				c0.414,0,0.848,0.128,1.094,0.337L411.298,469.879z"/>
			<path id="XMLID_331_" style="fill:#112129;" d="M418.965,471.757c0,0.222-0.015,0.489-0.037,0.651h-5.085
				c0.207,1.036,0.933,1.488,1.843,1.488c0.622,0,1.295-0.252,1.813-0.688l1.133,1.243c-0.814,0.748-1.85,1.088-3.057,1.088
				c-2.198,0-3.723-1.495-3.723-3.753c0-2.258,1.48-3.797,3.627-3.797C417.544,467.99,418.958,469.522,418.965,471.757z
				 M413.851,471.091h3.175c-0.177-0.918-0.733-1.436-1.562-1.436C414.554,469.655,414.021,470.203,413.851,471.091z"/>
			<path id="XMLID_328_" style="fill:#112129;" d="M426.618,471.757c0,0.222-0.015,0.489-0.037,0.651h-5.085
				c0.207,1.036,0.933,1.488,1.843,1.488c0.622,0,1.295-0.252,1.814-0.688l1.132,1.243c-0.814,0.748-1.85,1.088-3.057,1.088
				c-2.198,0-3.723-1.495-3.723-3.753c0-2.258,1.48-3.797,3.627-3.797C425.197,467.99,426.611,469.522,426.618,471.757z
				 M421.504,471.091h3.175c-0.178-0.918-0.733-1.436-1.562-1.436C422.207,469.655,421.674,470.203,421.504,471.091z"/>
			<path id="XMLID_325_" style="fill:#112129;" d="M434.964,471.764c0,2.154-1.495,3.775-3.471,3.775
				c-0.962,0-1.643-0.378-2.109-0.933v3.708h-1.924v-10.133h1.887v0.792c0.466-0.585,1.155-0.984,2.139-0.984
				C433.469,467.99,434.964,469.61,434.964,471.764z M429.287,471.764c0,1.132,0.748,1.976,1.843,1.976
				c1.14,0,1.85-0.881,1.85-1.976c0-1.095-0.71-1.976-1.85-1.976C430.035,469.788,429.287,470.632,429.287,471.764z"/>
			<path id="XMLID_322_" style="fill:#112129;" d="M438.068,465.836c0,0.696-0.54,1.229-1.236,1.229
				c-0.696,0-1.229-0.533-1.229-1.229c0-0.696,0.533-1.243,1.229-1.243C437.527,464.592,438.068,465.14,438.068,465.836z
				 M437.809,475.354h-1.932v-7.172h1.932V475.354z"/>
			<path id="XMLID_320_" style="fill:#112129;" d="M441.032,470.736l2.701-2.554h2.368l-3.479,3.375l3.501,3.797h-2.376
				l-2.716-2.901v2.901H439.1v-10.658h1.932V470.736z"/>
		</g>
		<g>
			<path style="fill:#112129;" d="M309.412,475.289v-1.055c-0.527,0.718-1.391,1.23-2.387,1.23c-1.846,0-3.149-1.406-3.149-3.706
				c0-2.256,1.289-3.721,3.149-3.721c0.952,0,1.816,0.469,2.387,1.245v-3.765h1.099v9.77H309.412z M309.412,473.37v-3.208
				c-0.395-0.615-1.245-1.143-2.124-1.143c-1.421,0-2.27,1.172-2.27,2.739c0,1.567,0.85,2.724,2.27,2.724
				C308.168,474.483,309.017,473.986,309.412,473.37z"/>
			<path style="fill:#112129;" d="M311.932,471.744c0-2.051,1.465-3.706,3.486-3.706c2.139,0,3.398,1.67,3.398,3.794v0.279h-5.727
				c0.088,1.333,1.026,2.446,2.549,2.446c0.805,0,1.626-0.322,2.182-0.894l0.527,0.718c-0.703,0.703-1.655,1.084-2.812,1.084
				C313.44,475.465,311.932,473.956,311.932,471.744z M315.404,468.947c-1.509,0-2.256,1.274-2.315,2.358h4.643
				C317.718,470.25,317.015,468.947,315.404,468.947z"/>
			<path style="fill:#112129;" d="M319.607,474.351l0.571-0.791c0.469,0.542,1.362,1.011,2.329,1.011c1.084,0,1.67-0.513,1.67-1.216
				c0-1.714-4.38-0.659-4.38-3.281c0-1.098,0.952-2.036,2.636-2.036c1.201,0,2.051,0.454,2.622,1.026l-0.513,0.762
				c-0.424-0.513-1.201-0.894-2.109-0.894c-0.967,0-1.567,0.483-1.567,1.113c0,1.552,4.38,0.527,4.38,3.281
				c0,1.187-0.952,2.138-2.783,2.138C321.306,475.465,320.325,475.113,319.607,474.351z"/>
			<path style="fill:#112129;" d="M326.477,466.471c0-0.41,0.337-0.747,0.732-0.747c0.41,0,0.747,0.337,0.747,0.747
				c0,0.41-0.337,0.732-0.747,0.732C326.814,467.203,326.477,466.881,326.477,466.471z M326.667,475.289v-7.075h1.099v7.075H326.667
				z"/>
			<path style="fill:#112129;" d="M329.582,477.105l0.556-0.82c0.586,0.703,1.289,0.967,2.3,0.967c1.172,0,2.27-0.571,2.27-2.124
				v-1.011c-0.513,0.718-1.377,1.26-2.373,1.26c-1.845,0-3.149-1.377-3.149-3.662c0-2.27,1.289-3.677,3.149-3.677
				c0.952,0,1.802,0.469,2.373,1.245v-1.069h1.098v6.87c0,2.344-1.641,3.076-3.369,3.076
				C331.237,478.16,330.417,477.926,329.582,477.105z M334.709,473.253v-3.091c-0.381-0.615-1.231-1.143-2.109-1.143
				c-1.421,0-2.27,1.128-2.27,2.695c0,1.553,0.849,2.695,2.27,2.695C333.478,474.41,334.328,473.868,334.709,473.253z"/>
			<path style="fill:#112129;" d="M342.413,475.289v-4.629c0-1.245-0.63-1.641-1.582-1.641c-0.865,0-1.685,0.527-2.095,1.099v5.17
				h-1.099v-7.075h1.099v1.025c0.498-0.586,1.465-1.201,2.519-1.201c1.48,0,2.256,0.747,2.256,2.285v4.966H342.413z"/>
			<path style="fill:#112129;" d="M344.932,471.744c0-2.051,1.465-3.706,3.486-3.706c2.138,0,3.398,1.67,3.398,3.794v0.279h-5.727
				c0.088,1.333,1.025,2.446,2.549,2.446c0.806,0,1.626-0.322,2.183-0.894l0.527,0.718c-0.703,0.703-1.655,1.084-2.812,1.084
				C346.441,475.465,344.932,473.956,344.932,471.744z M348.404,468.947c-1.509,0-2.256,1.274-2.314,2.358h4.643
				C350.718,470.25,350.015,468.947,348.404,468.947z"/>
			<path style="fill:#112129;" d="M358.35,475.289v-1.055c-0.527,0.718-1.392,1.23-2.388,1.23c-1.845,0-3.149-1.406-3.149-3.706
				c0-2.256,1.289-3.721,3.149-3.721c0.952,0,1.817,0.469,2.388,1.245v-3.765h1.098v9.77H358.35z M358.35,473.37v-3.208
				c-0.396-0.615-1.245-1.143-2.124-1.143c-1.421,0-2.27,1.172-2.27,2.739c0,1.567,0.849,2.724,2.27,2.724
				C357.105,474.483,357.954,473.986,358.35,473.37z"/>
			<path style="fill:#112129;" d="M364.692,475.289v-9.77h1.099v3.765c0.572-0.776,1.421-1.245,2.388-1.245
				c1.845,0,3.149,1.465,3.149,3.721c0,2.299-1.304,3.706-3.149,3.706c-0.996,0-1.86-0.513-2.388-1.23v1.055H364.692z
				 M367.9,474.483c1.436,0,2.286-1.157,2.286-2.724c0-1.568-0.85-2.739-2.286-2.739c-0.864,0-1.728,0.527-2.109,1.143v3.208
				C366.172,473.986,367.036,474.483,367.9,474.483z"/>
			<path style="fill:#112129;" d="M372.529,477.061c0.161,0.073,0.425,0.117,0.601,0.117c0.483,0,0.806-0.161,1.055-0.747
				l0.469-1.069l-2.959-7.148h1.187l2.358,5.8l2.344-5.8h1.201l-3.545,8.51c-0.425,1.025-1.143,1.421-2.08,1.435
				c-0.234,0-0.601-0.044-0.806-0.103L372.529,477.061z"/>
		</g>
	</g>
</g>
</svg>
